<svg width="1428" height="394" viewBox="0 0 1428 394" fill="none" xmlns="http://www.w3.org/2000/svg">
<path d="M91.7469 362.812C49.6449 335.941 19.3409 294.06 6.98392 245.667C-5.37308 197.273 1.14092 145.991 25.2069 102.225L68.2969 125.919C50.2489 158.743 45.3629 197.205 54.6309 233.5C63.8989 269.795 86.6269 301.206 118.203 321.359L91.7469 362.812Z" fill="#F18B00"/>
<path d="M47.7019 69.5976C70.2889 43.0276 99.5339 22.9396 132.44 11.3926C165.346 -0.154402 200.73 -2.7454 234.967 3.8836C269.204 10.5136 301.063 26.1266 327.28 49.1216C353.497 72.1176 373.13 101.67 384.166 134.752L337.517 150.312C329.24 125.502 314.516 103.338 294.853 86.0906C275.19 68.8436 251.296 57.1346 225.618 52.1616C199.94 47.1896 173.402 49.1336 148.723 57.7936C124.043 66.4536 102.11 81.5196 85.1699 101.448L47.7019 69.5976Z" fill="#024695"/>
<path d="M392.55 171.008C397.05 204.76 392.71 239.1 379.958 270.671C367.206 302.242 346.477 329.962 319.798 351.12C293.121 372.277 261.408 386.147 227.761 391.373C194.116 396.599 159.689 393.002 127.851 380.933L145.281 334.95C169.16 344.001 194.98 346.7 220.214 342.78C245.448 338.86 269.234 328.458 289.242 312.59C309.25 296.722 324.797 275.932 334.362 252.254C343.926 228.575 347.18 202.82 343.806 177.507L392.55 171.008Z" fill="#F18B00"/>
<path d="M109.229 196.363L112.159 192.433L104.326 186.592V196.363H109.229ZM193.205 258.976L190.274 262.907L198.108 268.747V258.977L193.205 258.976ZM114.132 268.306V196.363H104.326V268.306H114.132ZM106.298 200.294L190.274 262.907L196.135 255.046L112.159 192.433L106.298 200.294ZM198.108 258.976V187.108H188.302V258.976H198.108Z" fill="#024695"/>
<path d="M227.599 218.841L202.396 251.302V268.688L229.173 233.838L285.914 268.421V125.313H275.258V249.468L227.599 218.841Z" fill="#024695"/>
<path d="M280.533 122.418L283.862 119.09L280.533 115.761L277.205 119.09L280.533 122.418ZM262.081 147.527L283.861 125.746L277.205 119.09L255.425 140.87L262.081 147.527ZM277.205 125.746L298.986 147.526L305.642 140.87L283.862 119.09L277.205 125.746Z" fill="#F18B00"/>
<path d="M511.169 81.4326V157.206H488.239V39.2266H506.517L567.5 116.993V39.3926H590.431V157.206H571.321L511.169 81.4326Z" fill="#024695"/>
<path d="M683.344 137.099V157.206H601.424V39.2266H683.251V59.3326H624.355V87.7476H674.039V106.358H624.355V137.099H683.344Z" fill="#024695"/>
<path d="M791.917 59.3326H754.197V157.206H731.431V59.3326H693.711V39.2276H791.917V59.3326Z" fill="#024695"/>
<path d="M854.959 39.5586H876.229L889.689 78.6086L903.314 39.5586H924.417L904.145 93.2306L919.1 130.785L952.5 39.2266H977.425L930.233 157.206H910.459L889.689 107.688L869.084 157.206H849.31L802.284 39.2266H826.877L860.443 130.785L875.066 93.2306L854.959 39.5586Z" fill="#024695"/>
<path d="M1043.43 158.037C1034.79 158.037 1026.93 156.375 1019.84 153.052C1012.86 149.728 1006.82 145.241 1001.73 139.592C996.742 133.832 992.864 127.407 990.095 120.317C987.326 113.116 985.941 105.749 985.941 98.2166C985.941 90.3506 987.381 82.8729 990.261 75.7836C993.252 68.5836 997.295 62.2136 1002.39 56.6736C1007.6 51.0243 1013.69 46.5933 1020.67 43.3806C1027.76 40.0573 1035.51 38.3956 1043.93 38.3956C1052.46 38.3956 1060.22 40.1126 1067.2 43.5466C1074.29 46.9813 1080.32 51.5786 1085.31 57.3386C1090.29 63.0986 1094.17 69.5239 1096.94 76.6146C1099.71 83.7039 1101.09 91.0153 1101.09 98.5486C1101.09 106.303 1099.65 113.781 1096.77 120.981C1093.89 128.071 1089.85 134.441 1084.64 140.091C1079.55 145.629 1073.46 150.004 1066.37 153.218C1059.39 156.43 1051.74 158.037 1043.43 158.037ZM1009.2 98.2166C1009.2 103.312 1009.98 108.241 1011.53 113.005C1013.08 117.769 1015.3 122.034 1018.18 125.8C1021.17 129.456 1024.77 132.391 1028.98 134.607C1033.3 136.711 1038.17 137.764 1043.6 137.764C1049.14 137.764 1054.07 136.656 1058.39 134.441C1062.71 132.114 1066.31 129.067 1069.19 125.301C1072.07 121.423 1074.23 117.159 1075.67 112.507C1077.22 107.743 1078 102.979 1078 98.2166C1078 93.1206 1077.17 88.2463 1075.5 83.5936C1073.95 78.8303 1071.68 74.6206 1068.69 70.9646C1065.81 67.1979 1062.21 64.2623 1057.89 62.1576C1053.68 59.9423 1048.92 58.8346 1043.6 58.8346C1037.95 58.8346 1032.97 59.9979 1028.65 62.3246C1024.44 64.5399 1020.89 67.5306 1018.01 71.2966C1015.13 75.0633 1012.92 79.2733 1011.36 83.9266C1009.92 88.5786 1009.2 93.3419 1009.2 98.2166Z" fill="#024695"/>
<path d="M1113.31 157.206V39.2266H1165.49C1170.92 39.2266 1175.9 40.3343 1180.44 42.5496C1185.1 44.7656 1189.09 47.7566 1192.41 51.5226C1195.84 55.2893 1198.45 59.4993 1200.22 64.1526C1202.1 68.8046 1203.04 73.5679 1203.04 78.4426C1203.04 83.4266 1202.16 88.2453 1200.38 92.8986C1198.72 97.4406 1196.29 101.429 1193.07 104.863C1189.86 108.297 1186.09 110.955 1181.77 112.839L1208.69 157.206H1183.44L1159.18 117.658H1136.24V157.206H1113.31ZM1136.24 97.5516H1164.99C1167.87 97.5516 1170.42 96.7206 1172.63 95.0586C1174.85 93.2859 1176.62 90.9596 1177.95 88.0796C1179.28 85.1996 1179.95 81.9869 1179.95 78.4416C1179.95 74.6749 1179.17 71.4073 1177.62 68.6386C1176.07 65.7586 1174.08 63.4876 1171.64 61.8256C1169.31 60.1636 1166.76 59.3326 1163.99 59.3326H1136.24L1136.24 97.5516Z" fill="#024695"/>
<path d="M1317.27 59.3326H1279.55V157.206H1256.78V59.3326H1219.06V39.2276H1317.27L1317.27 59.3326Z" fill="#024695"/>
<path d="M1426.84 39.2266V157.206H1404.07V106.857H1350.56V157.206H1327.63V39.2266H1350.56V86.9166H1404.07V39.2266H1426.84Z" fill="#024695"/>
<path d="M586.354 242.291H548.634V340.164H525.87V242.291H488.15V222.185H586.354V242.291Z" fill="#024695"/>
<path d="M628.307 340.164V222.185H680.484C685.912 222.185 690.897 223.292 695.439 225.508C700.091 227.724 704.079 230.715 707.403 234.481C710.836 238.247 713.44 242.457 715.213 247.111C717.096 251.763 718.037 256.526 718.037 261.401C718.037 266.385 717.151 271.203 715.379 275.857C713.717 280.399 711.28 284.387 708.067 287.821C704.854 291.255 701.088 293.913 696.768 295.797L723.688 340.164H698.43L674.17 300.616H651.237V340.164H628.307ZM651.238 280.51H679.985C682.865 280.51 685.413 279.679 687.629 278.017C689.844 276.244 691.617 273.918 692.946 271.038C694.276 268.158 694.941 264.945 694.94 261.4C694.94 257.633 694.165 254.365 692.614 251.597C691.063 248.717 689.069 246.446 686.632 244.784C684.306 243.122 681.758 242.291 678.988 242.291H651.238V280.51Z" fill="#024695"/>
<path d="M809.175 222.185H832.438L875.808 340.164H852.212L841.245 310.752H800.035L789.235 340.164H765.639L809.175 222.185ZM837.091 294.634L820.807 245.947L803.857 294.634H837.091Z" fill="#024695"/>
<path d="M917.76 280.178C917.76 272.976 919.034 265.942 921.582 259.074C924.241 252.095 928.063 245.781 933.048 240.131C938.033 234.371 944.126 229.829 951.326 226.505C958.526 223.071 966.724 221.355 975.919 221.355C986.775 221.355 996.136 223.736 1004 228.499C1011.98 233.263 1017.9 239.466 1021.78 247.11L1004.17 259.24C1002.17 254.809 999.57 251.32 996.357 248.772C993.145 246.113 989.711 244.285 986.055 243.288C982.399 242.181 978.799 241.627 975.255 241.627C969.494 241.627 964.453 242.79 960.133 245.117C955.924 247.443 952.379 250.489 949.498 254.255C946.618 258.021 944.458 262.231 943.018 266.885C941.688 271.537 941.023 276.189 941.024 280.842C941.024 286.048 941.855 291.089 943.516 295.963C945.178 300.727 947.505 304.992 950.496 308.758C953.597 312.413 957.253 315.349 961.462 317.565C965.782 319.669 970.49 320.722 975.587 320.722C979.242 320.722 982.953 320.112 986.72 318.894C990.487 317.675 993.976 315.737 997.188 313.079C1000.4 310.419 1002.89 306.985 1004.67 302.776L1023.44 313.577C1021.12 319.448 1017.29 324.433 1011.98 328.532C1006.77 332.63 1000.9 335.732 994.363 337.837C987.827 339.942 981.347 340.995 974.922 340.995C966.502 340.995 958.803 339.277 951.825 335.843C944.845 332.299 938.807 327.646 933.712 321.885C928.727 316.014 924.795 309.478 921.915 302.278C919.145 294.966 917.76 287.6 917.76 280.178Z" fill="#024695"/>
<path d="M1065.4 340.164V222.351H1088.33V278.35L1137.84 222.185H1163.1L1117.9 274.528L1165.93 340.164H1140L1103.28 289.317L1088.33 304.937V340.164H1065.4Z" fill="#024695"/>
<path d="M1289.8 320.058V340.164H1207.88V222.185H1288.3V242.291H1230.81V270.706H1280.49V289.316H1230.81V320.057L1289.8 320.058Z" fill="#024695"/>
<path d="M1331.75 340.164V222.185H1383.93C1389.36 222.185 1394.34 223.292 1398.88 225.508C1403.54 227.724 1407.52 230.715 1410.85 234.481C1414.28 238.247 1416.88 242.457 1418.66 247.111C1420.54 251.763 1421.48 256.526 1421.48 261.401C1421.48 266.385 1420.6 271.203 1418.82 275.857C1417.16 280.399 1414.72 284.387 1411.51 287.821C1408.3 291.255 1404.53 293.913 1400.21 295.797L1427.13 340.164H1401.87L1377.61 300.616H1354.68V340.164H1331.75ZM1354.68 280.51H1383.43C1386.31 280.51 1388.86 279.679 1391.07 278.017C1393.29 276.244 1395.06 273.918 1396.39 271.038C1397.72 268.158 1398.39 264.945 1398.38 261.4C1398.38 257.633 1397.61 254.365 1396.06 251.597C1394.51 248.717 1392.51 246.446 1390.08 244.784C1387.75 243.122 1385.2 242.291 1382.43 242.291H1354.68V280.51Z" fill="#024695"/>
</svg>
